<?xml version="1.0" encoding="UTF-8" standalone="no"?>
<!DOCTYPE svg PUBLIC "-//W3C//DTD SVG 1.1//EN"
 "http://www.w3.org/Graphics/SVG/1.1/DTD/svg11.dtd">
<!-- Generated by graphviz version 2.38.0 (20140413.2041)
 -->
<!-- Title: %3 Pages: 1 -->
<svg width="735pt" height="927pt"
 viewBox="0.00 0.00 734.59 927.00" xmlns="http://www.w3.org/2000/svg" xmlns:xlink="http://www.w3.org/1999/xlink">
<g id="graph0" class="graph" transform="scale(1 1) rotate(0) translate(4 923)">
<title>%3</title>
<polygon fill="white" stroke="none" points="-4,4 -4,-923 730.589,-923 730.589,4 -4,4"/>
<!-- I -->
<g id="node1" class="node"><title>I</title>
<ellipse fill="none" stroke="black" cx="18" cy="-436" rx="18" ry="18"/>
<text text-anchor="middle" x="18" y="-432.3" font-family="Times New Roman,serif" font-size="14.00">I</text>
</g>
<!-- i -->
<g id="node2" class="node"><title>i</title>
<ellipse fill="none" stroke="black" cx="115" cy="-436" rx="18" ry="18"/>
<text text-anchor="middle" x="115" y="-432.3" font-family="Times New Roman,serif" font-size="14.00">i</text>
</g>
<!-- I&#45;&gt;i -->
<g id="edge1" class="edge"><title>I&#45;&gt;i</title>
<path fill="none" stroke="black" stroke-width="1.8" d="M36.4245,-436C50.3516,-436 70.1386,-436 86.2427,-436"/>
<polygon fill="black" stroke="black" stroke-width="1.8" points="86.686,-439.5 96.686,-436 86.686,-432.5 86.686,-439.5"/>
<text text-anchor="middle" x="66.5" y="-439.8" font-family="Times New Roman,serif" font-size="14.00">0.18</text>
</g>
<!-- V -->
<g id="node3" class="node"><title>V</title>
<ellipse fill="none" stroke="black" cx="708.589" cy="-500" rx="18" ry="18"/>
<text text-anchor="middle" x="708.589" y="-496.3" font-family="Times New Roman,serif" font-size="14.00">V</text>
</g>
<!-- I&#45;&gt;V -->
<g id="edge2" class="edge"><title>I&#45;&gt;V</title>
<path fill="none" stroke="black" stroke-width="3.8" d="M19.3108,-453.969C20.8202,-532.744 28.3906,-845.204 54,-880 71.0245,-903.131 85.2791,-904 114,-904 114,-904 114,-904 610.441,-904 640.051,-904 654.74,-903.624 672.589,-880 693.681,-852.085 703.796,-611.501 706.688,-528.227"/>
<polygon fill="black" stroke="black" stroke-width="3.8" points="710.187,-528.327 707.027,-518.214 703.191,-528.09 710.187,-528.327"/>
<text text-anchor="middle" x="361.796" y="-907.8" font-family="Times New Roman,serif" font-size="14.00">0.38</text>
</g>
<!-- IV -->
<g id="node4" class="node"><title>IV</title>
<ellipse fill="none" stroke="black" cx="609.441" cy="-604" rx="20.2975" ry="20.2975"/>
<text text-anchor="middle" x="609.441" y="-600.3" font-family="Times New Roman,serif" font-size="14.00">IV</text>
</g>
<!-- I&#45;&gt;IV -->
<g id="edge3" class="edge"><title>I&#45;&gt;IV</title>
<path fill="none" stroke="black" stroke-width="1.6" d="M20.8915,-453.78C24.3707,-481.39 33.4074,-535.692 54,-577 101.791,-672.868 152.125,-676.048 252.296,-714 326.644,-742.168 350.355,-761.689 428.296,-746 495.863,-732.399 521.878,-734.046 571.293,-686 585.999,-671.701 595.39,-650.512 601.051,-633.255"/>
<polygon fill="black" stroke="black" stroke-width="1.6" points="604.417,-634.216 603.964,-623.631 597.717,-632.187 604.417,-634.216"/>
<text text-anchor="middle" x="313.296" y="-747.8" font-family="Times New Roman,serif" font-size="14.00">0.16</text>
</g>
<!-- v -->
<g id="node5" class="node"><title>v</title>
<ellipse fill="none" stroke="black" cx="410.296" cy="-308" rx="18" ry="18"/>
<text text-anchor="middle" x="410.296" y="-304.3" font-family="Times New Roman,serif" font-size="14.00">v</text>
</g>
<!-- I&#45;&gt;v -->
<g id="edge4" class="edge"><title>I&#45;&gt;v</title>
<path fill="none" stroke="black" stroke-width="0.6" d="M19.6246,-417.846C21.5533,-372.497 28.8947,-255.902 54,-228 142.477,-129.666 323.632,-245.484 386.896,-291.105"/>
<polygon fill="black" stroke="black" stroke-width="0.6" points="385.213,-294.211 395.349,-297.293 389.347,-288.562 385.213,-294.211"/>
<text text-anchor="middle" x="214.148" y="-211.8" font-family="Times New Roman,serif" font-size="14.00">0.06</text>
</g>
<!-- III -->
<g id="node6" class="node"><title>III</title>
<ellipse fill="none" stroke="black" cx="508.795" cy="-358" rx="19.4965" ry="19.4965"/>
<text text-anchor="middle" x="508.795" y="-354.3" font-family="Times New Roman,serif" font-size="14.00">III</text>
</g>
<!-- I&#45;&gt;III -->
<g id="edge5" class="edge"><title>I&#45;&gt;III</title>
<path fill="none" stroke="black" stroke-width="0.4" d="M19.4333,-417.823C21.3806,-342.334 30.2866,-56.0152 54,-24 71.0948,-0.920621 85.2791,-0 114,-0 114,-0 114,-0 265.796,-0 341.902,-0 372.493,-2.25034 428.296,-54 458.759,-82.2498 458.195,-97.5745 471.296,-137 493.342,-203.34 502.424,-285.485 505.877,-328.527"/>
<polygon fill="black" stroke="black" stroke-width="0.4" points="502.395,-328.886 506.639,-338.594 509.375,-328.358 502.395,-328.886"/>
<text text-anchor="middle" x="264.796" y="-3.8" font-family="Times New Roman,serif" font-size="14.00">0.04</text>
</g>
<!-- vi -->
<g id="node7" class="node"><title>vi</title>
<ellipse fill="none" stroke="black" cx="313.296" cy="-518" rx="18" ry="18"/>
<text text-anchor="middle" x="313.296" y="-514.3" font-family="Times New Roman,serif" font-size="14.00">vi</text>
</g>
<!-- I&#45;&gt;vi -->
<g id="edge6" class="edge"><title>I&#45;&gt;vi</title>
<path fill="none" stroke="black" stroke-width="1.3" d="M25.4642,-452.403C40.8059,-488.748 83.2796,-575.489 151,-609 204.89,-635.667 266.119,-574.813 295.208,-540.076"/>
<polygon fill="black" stroke="black" stroke-width="1.3" points="297.955,-542.245 301.564,-532.284 292.531,-537.821 297.955,-542.245"/>
<text text-anchor="middle" x="163.5" y="-618.8" font-family="Times New Roman,serif" font-size="14.00">0.13</text>
</g>
<!-- VI -->
<g id="node8" class="node"><title>VI</title>
<ellipse fill="none" stroke="black" cx="214.148" cy="-274" rx="20.2975" ry="20.2975"/>
<text text-anchor="middle" x="214.148" y="-270.3" font-family="Times New Roman,serif" font-size="14.00">VI</text>
</g>
<!-- I&#45;&gt;VI -->
<g id="edge7" class="edge"><title>I&#45;&gt;VI</title>
<path fill="none" stroke="black" stroke-width="0.5" d="M20.5618,-418.008C24.3511,-377.87 35.1353,-282.531 54,-257 86.7905,-212.623 125.422,-211.946 176,-234 183.696,-237.356 190.515,-243.18 196.141,-249.361"/>
<polygon fill="black" stroke="black" stroke-width="0.5" points="193.552,-251.723 202.607,-257.224 198.959,-247.277 193.552,-251.723"/>
<text text-anchor="middle" x="115" y="-226.8" font-family="Times New Roman,serif" font-size="14.00">0.05</text>
</g>
<!-- i&#45;&gt;I -->
<g id="edge8" class="edge"><title>i&#45;&gt;I</title>
<path fill="none" stroke="black" stroke-width="4.9" d="M99.6887,-426.134C93.5975,-422.507 86.2374,-418.838 79,-417 68.2307,-414.265 64.7693,-414.265 54,-417 50.042,-418.005 46.0474,-419.558 42.2436,-421.352"/>
<polygon fill="black" stroke="black" stroke-width="4.9" points="40.1034,-417.634 33.3113,-426.134 44.151,-425.194 40.1034,-417.634"/>
<text text-anchor="middle" x="66.5" y="-420.8" font-family="Times New Roman,serif" font-size="14.00">0.49</text>
</g>
<!-- i&#45;&gt;V -->
<g id="edge9" class="edge"><title>i&#45;&gt;V</title>
<path fill="none" stroke="black" stroke-width="0.4" d="M118.394,-418.215C122.897,-386.793 133.756,-319.615 151,-265 165.443,-219.255 169.555,-207.276 194,-166 219.794,-122.446 213.177,-76 263.796,-76 263.796,-76 263.796,-76 610.441,-76 691.883,-76 705.052,-376.979 707.18,-471.769"/>
<polygon fill="black" stroke="black" stroke-width="0.4" points="703.681,-471.853 707.38,-481.781 710.679,-471.713 703.681,-471.853"/>
<text text-anchor="middle" x="410.296" y="-79.8" font-family="Times New Roman,serif" font-size="14.00">0.04</text>
</g>
<!-- i&#45;&gt;IV -->
<g id="edge10" class="edge"><title>i&#45;&gt;IV</title>
<path fill="none" stroke="black" stroke-width="0.1" d="M117.632,-454.025C121.499,-493.257 132.32,-584.806 151,-609 199.783,-672.183 232.472,-688 312.296,-688 312.296,-688 312.296,-688 509.795,-688 539.135,-688 548.744,-682.772 571.293,-664 581.739,-655.304 590.107,-642.877 596.237,-631.586"/>
<polygon fill="black" stroke="black" stroke-width="0.1" points="599.456,-632.978 600.856,-622.476 593.212,-629.812 599.456,-632.978"/>
<text text-anchor="middle" x="361.796" y="-691.8" font-family="Times New Roman,serif" font-size="14.00">0.01</text>
</g>
<!-- i&#45;&gt;v -->
<g id="edge11" class="edge"><title>i&#45;&gt;v</title>
<path fill="none" stroke="black" stroke-width="1.5" d="M120.384,-418.718C125.389,-401.956 135.02,-376.677 151,-360 186.012,-323.46 203.106,-319.888 252.296,-308 276.049,-302.26 343.546,-304.56 381.859,-306.454"/>
<polygon fill="black" stroke="black" stroke-width="1.5" points="382.113,-309.972 392.281,-306.995 382.476,-302.981 382.113,-309.972"/>
<text text-anchor="middle" x="264.796" y="-311.8" font-family="Times New Roman,serif" font-size="14.00">0.15</text>
</g>
<!-- i&#45;&gt;III -->
<g id="edge12" class="edge"><title>i&#45;&gt;III</title>
<path fill="none" stroke="black" d="M131.926,-443.34C161.282,-455.83 225.647,-478.351 277.296,-462 305.275,-453.142 308.838,-442.89 331.296,-424 339.955,-416.718 339.209,-411.123 349.296,-406 398.223,-381.15 421.034,-409.023 471.296,-387 476.578,-384.686 481.747,-381.413 486.457,-377.895"/>
<polygon fill="black" stroke="black" points="488.823,-380.482 494.364,-371.452 484.401,-375.056 488.823,-380.482"/>
<text text-anchor="middle" x="313.296" y="-457.8" font-family="Times New Roman,serif" font-size="14.00">0.1</text>
</g>
<!-- i&#45;&gt;vi -->
<g id="edge13" class="edge"><title>i&#45;&gt;vi</title>
<path fill="none" stroke="black" stroke-width="0.3" d="M127.485,-449.458C133.824,-456.155 142.186,-463.889 151,-469 194.407,-494.169 252.017,-507.603 285.338,-513.732"/>
<polygon fill="black" stroke="black" stroke-width="0.3" points="284.8,-517.191 295.254,-515.471 286.009,-510.296 284.8,-517.191"/>
<text text-anchor="middle" x="214.148" y="-504.8" font-family="Times New Roman,serif" font-size="14.00">0.03</text>
</g>
<!-- i&#45;&gt;VI -->
<g id="edge14" class="edge"><title>i&#45;&gt;VI</title>
<path fill="none" stroke="black" stroke-width="1.8" d="M117.564,-417.823C120.489,-392.954 128.674,-347.893 151,-317 156.123,-309.911 172.767,-298.542 187.542,-289.275"/>
<polygon fill="black" stroke="black" stroke-width="1.8" points="189.7,-292.057 196.381,-283.833 186.03,-286.096 189.7,-292.057"/>
<text text-anchor="middle" x="163.5" y="-320.8" font-family="Times New Roman,serif" font-size="14.00">0.18</text>
</g>
<!-- V&#45;&gt;I -->
<g id="edge15" class="edge"><title>V&#45;&gt;I</title>
<path fill="none" stroke="black" stroke-width="7.1" d="M706.739,-518.15C702.794,-592.001 683.25,-866 610.441,-866 114,-866 114,-866 114,-866 31.4582,-866 20.5725,-560.08 19.187,-464.309"/>
<polygon fill="black" stroke="black" stroke-width="7.1" points="25.3979,-464.127 19.0656,-454.202 12.9738,-464.276 25.3979,-464.127"/>
<text text-anchor="middle" x="361.796" y="-869.8" font-family="Times New Roman,serif" font-size="14.00">0.71</text>
</g>
<!-- V&#45;&gt;i -->
<g id="edge16" class="edge"><title>V&#45;&gt;i</title>
<path fill="none" stroke="black" stroke-width="0.3" d="M705.4,-518.059C701.836,-541.382 693.002,-582.374 672.589,-611 640.066,-656.609 620.539,-659.302 571.293,-686 446.566,-753.617 391.67,-724.534 252.296,-698 199.982,-688.04 174.545,-681.766 151,-634 123.502,-578.215 117.327,-504.176 116.113,-464.31"/>
<polygon fill="black" stroke="black" stroke-width="0.3" points="119.611,-464.168 115.892,-454.247 112.613,-464.321 119.611,-464.168"/>
<text text-anchor="middle" x="410.296" y="-730.8" font-family="Times New Roman,serif" font-size="14.00">0.03</text>
</g>
<!-- V&#45;&gt;IV -->
<g id="edge17" class="edge"><title>V&#45;&gt;IV</title>
<path fill="none" stroke="black" stroke-width="0.4" d="M703.386,-517.46C698.519,-534.357 688.989,-559.736 672.589,-576 663.361,-585.152 650.612,-591.605 639.062,-595.99"/>
<polygon fill="black" stroke="black" stroke-width="0.4" points="637.661,-592.771 629.339,-599.327 639.934,-599.391 637.661,-592.771"/>
<text text-anchor="middle" x="660.089" y="-595.8" font-family="Times New Roman,serif" font-size="14.00">0.04</text>
</g>
<!-- V&#45;&gt;v -->
<g id="edge18" class="edge"><title>V&#45;&gt;v</title>
<path fill="none" stroke="black" stroke-width="1.2" d="M707.665,-481.681C707.495,-429.299 704.182,-280.445 672.589,-246 604.541,-171.808 528.009,-177.195 446.296,-236 431.583,-246.589 422.777,-265.078 417.678,-280.668"/>
<polygon fill="black" stroke="black" stroke-width="1.2" points="414.285,-279.802 414.838,-290.382 421.003,-281.766 414.285,-279.802"/>
<text text-anchor="middle" x="558.793" y="-196.8" font-family="Times New Roman,serif" font-size="14.00">0.12</text>
</g>
<!-- V&#45;&gt;III -->
<g id="edge19" class="edge"><title>V&#45;&gt;III</title>
<path fill="none" stroke="black" stroke-width="0.4" d="M695.474,-487.136C688.963,-480.511 680.637,-472.485 672.589,-466 626.681,-429.002 568.053,-392.451 535.15,-372.8"/>
<polygon fill="black" stroke="black" stroke-width="0.4" points="536.582,-369.58 526.195,-367.49 533.012,-375.601 536.582,-369.58"/>
<text text-anchor="middle" x="609.441" y="-435.8" font-family="Times New Roman,serif" font-size="14.00">0.04</text>
</g>
<!-- V&#45;&gt;vi -->
<g id="edge20" class="edge"><title>V&#45;&gt;vi</title>
<path fill="none" stroke="black" stroke-width="0.4" d="M690.628,-502C641.67,-507.661 495.864,-523.721 374.296,-529 363.196,-529.482 360.279,-530.685 349.296,-529 346.345,-528.547 343.301,-527.891 340.298,-527.122"/>
<polygon fill="black" stroke="black" stroke-width="0.4" points="341.016,-523.685 330.433,-524.2 339.027,-530.396 341.016,-523.685"/>
<text text-anchor="middle" x="508.795" y="-524.8" font-family="Times New Roman,serif" font-size="14.00">0.04</text>
</g>
<!-- V&#45;&gt;VI -->
<g id="edge21" class="edge"><title>V&#45;&gt;VI</title>
<path fill="none" stroke="black" stroke-width="0.1" d="M706.867,-481.769C704.467,-427.259 695.567,-266.432 672.589,-220 655.423,-185.312 649.145,-159 610.441,-159 457.796,-159 457.796,-159 457.796,-159 369.446,-159 278.923,-222.027 237.866,-254.762"/>
<polygon fill="black" stroke="black" stroke-width="0.1" points="235.429,-252.232 229.874,-261.254 239.843,-257.665 235.429,-252.232"/>
<text text-anchor="middle" x="458.796" y="-163.8" font-family="Times New Roman,serif" font-size="14.00">0.01</text>
</g>
<!-- IV&#45;&gt;I -->
<g id="edge22" class="edge"><title>IV&#45;&gt;I</title>
<path fill="none" stroke="black" stroke-width="8.2" d="M605.233,-624.122C600.793,-646.857 590.984,-684.063 571.293,-710 495.845,-809.379 439.071,-823 314.296,-823 114,-823 114,-823 114,-823 40.1164,-823 23.3892,-553.6 19.8747,-464.342"/>
<polygon fill="black" stroke="black" stroke-width="8.2" points="27.0376,-463.877 19.5007,-454.147 12.6972,-464.403 27.0376,-463.877"/>
<text text-anchor="middle" x="313.296" y="-826.8" font-family="Times New Roman,serif" font-size="14.00">0.82</text>
</g>
<!-- IV&#45;&gt;i -->
<g id="edge23" class="edge"><title>IV&#45;&gt;i</title>
<path fill="none" stroke="black" stroke-width="0.4" d="M592.496,-615.032C586.172,-618.855 578.66,-622.744 571.293,-625 542.819,-633.72 481.131,-638.052 446.296,-633 328.913,-615.976 298.554,-602.01 194,-546 173.001,-534.751 165.913,-532.577 151,-514 138.881,-498.903 130.026,-478.943 124.255,-462.993"/>
<polygon fill="black" stroke="black" stroke-width="0.4" points="127.448,-461.514 120.904,-453.182 120.824,-463.777 127.448,-461.514"/>
<text text-anchor="middle" x="361.796" y="-623.8" font-family="Times New Roman,serif" font-size="14.00">0.04</text>
</g>
<!-- IV&#45;&gt;V -->
<g id="edge24" class="edge"><title>IV&#45;&gt;V</title>
<path fill="none" stroke="black" stroke-width="0.4" d="M622.144,-587.744C629.14,-578.409 638.428,-566.659 647.589,-557 657.775,-546.262 661.796,-545.127 672.589,-535 677.811,-530.101 683.34,-524.684 688.425,-519.605"/>
<polygon fill="black" stroke="black" stroke-width="0.4" points="690.91,-522.069 695.468,-512.505 685.94,-517.14 690.91,-522.069"/>
<text text-anchor="middle" x="660.089" y="-560.8" font-family="Times New Roman,serif" font-size="14.00">0.04</text>
</g>
<!-- IV&#45;&gt;vi -->
<g id="edge25" class="edge"><title>IV&#45;&gt;vi</title>
<path fill="none" stroke="black" stroke-width="1.1" d="M589.434,-599.592C563.026,-593.556 513.695,-582.603 471.296,-575 417.348,-565.326 397.58,-582.937 349.296,-557 342.133,-553.152 335.706,-547.238 330.374,-541.168"/>
<polygon fill="black" stroke="black" stroke-width="1.1" points="332.797,-538.595 323.814,-532.976 327.332,-542.969 332.797,-538.595"/>
<text text-anchor="middle" x="458.796" y="-578.8" font-family="Times New Roman,serif" font-size="14.00">0.11</text>
</g>
<!-- v&#45;&gt;I -->
<g id="edge26" class="edge"><title>v&#45;&gt;I</title>
<path fill="none" stroke="black" stroke-width="0.3" d="M398.985,-293.786C392.367,-285.074 383.344,-273.921 374.296,-265 356.947,-247.895 351.561,-244.525 331.296,-231 290.256,-203.61 282.055,-189.398 234.296,-177 175.077,-161.627 156.434,-172.48 97,-187 77.0367,-191.877 66.794,-187.918 54,-204 29.334,-235.005 21.9448,-352.853 19.8184,-407.659"/>
<polygon fill="black" stroke="black" stroke-width="0.3" points="16.3177,-407.617 19.4597,-417.735 23.3133,-407.866 16.3177,-407.617"/>
<text text-anchor="middle" x="214.148" y="-180.8" font-family="Times New Roman,serif" font-size="14.00">0.03</text>
</g>
<!-- v&#45;&gt;i -->
<g id="edge27" class="edge"><title>v&#45;&gt;i</title>
<path fill="none" stroke="black" stroke-width="4.5" d="M393.029,-313.552C387.167,-315.435 380.475,-317.452 374.296,-319 320.772,-332.406 303.855,-322.347 252.296,-342 203.19,-360.719 192.868,-371.237 151,-403 145.673,-407.041 140.255,-411.782 135.323,-416.39"/>
<polygon fill="black" stroke="black" stroke-width="4.5" points="132.519,-413.625 128.058,-423.402 137.988,-419.291 132.519,-413.625"/>
<text text-anchor="middle" x="264.796" y="-345.8" font-family="Times New Roman,serif" font-size="14.00">0.45</text>
</g>
<!-- v&#45;&gt;V -->
<g id="edge28" class="edge"><title>v&#45;&gt;V</title>
<path fill="none" stroke="black" stroke-width="2.6" d="M427.244,-301.254C439.425,-297.019 456.568,-293.044 471.296,-297 499.566,-304.593 503.723,-314.09 528.293,-330 596.667,-374.274 620.985,-379.975 672.589,-443 680.7,-452.906 688.317,-464.851 694.36,-475.242"/>
<polygon fill="black" stroke="black" stroke-width="2.6" points="691.476,-477.254 699.437,-484.245 697.573,-473.816 691.476,-477.254"/>
<text text-anchor="middle" x="558.793" y="-359.8" font-family="Times New Roman,serif" font-size="14.00">0.26</text>
</g>
<!-- v&#45;&gt;IV -->
<g id="edge29" class="edge"><title>v&#45;&gt;IV</title>
<path fill="none" stroke="black" stroke-width="0.8" d="M421.186,-322.983C427.925,-332.899 437.236,-346.043 446.296,-357 479.95,-397.7 503.721,-396.253 528.293,-443 546.462,-477.566 529.337,-493.823 546.293,-529 547.751,-532.026 571.345,-560.193 589.032,-581.124"/>
<polygon fill="black" stroke="black" stroke-width="0.8" points="586.566,-583.628 595.698,-589.001 591.91,-579.106 586.566,-583.628"/>
<text text-anchor="middle" x="508.795" y="-446.8" font-family="Times New Roman,serif" font-size="14.00">0.08</text>
</g>
<!-- v&#45;&gt;III -->
<g id="edge30" class="edge"><title>v&#45;&gt;III</title>
<path fill="none" stroke="black" stroke-width="0.5" d="M427.792,-303.267C440.419,-300.597 457.887,-299.029 471.296,-306 481.786,-311.453 489.89,-321.456 495.767,-331.242"/>
<polygon fill="black" stroke="black" stroke-width="0.5" points="492.694,-332.917 500.544,-340.033 498.845,-329.575 492.694,-332.917"/>
<text text-anchor="middle" x="458.796" y="-309.8" font-family="Times New Roman,serif" font-size="14.00">0.05</text>
</g>
<!-- v&#45;&gt;vi -->
<g id="edge31" class="edge"><title>v&#45;&gt;vi</title>
<path fill="none" stroke="black" stroke-width="0.8" d="M400.529,-323.28C388.056,-345.427 364.963,-387.962 349.296,-426 339.34,-450.173 340.898,-457.684 331.296,-482 329.894,-485.552 328.305,-489.247 326.675,-492.859"/>
<polygon fill="black" stroke="black" stroke-width="0.8" points="323.434,-491.527 322.367,-502.068 329.775,-494.494 323.434,-491.527"/>
<text text-anchor="middle" x="361.796" y="-429.8" font-family="Times New Roman,serif" font-size="14.00">0.08</text>
</g>
<!-- v&#45;&gt;VI -->
<g id="edge32" class="edge"><title>v&#45;&gt;VI</title>
<path fill="none" stroke="black" stroke-width="0.5" d="M392.701,-303.07C377.006,-298.569 352.731,-292.022 331.296,-288 302.041,-282.511 268.216,-278.718 244.642,-276.479"/>
<polygon fill="black" stroke="black" stroke-width="0.5" points="244.862,-272.984 234.585,-275.558 244.224,-279.955 244.862,-272.984"/>
<text text-anchor="middle" x="313.296" y="-291.8" font-family="Times New Roman,serif" font-size="14.00">0.05</text>
</g>
<!-- III&#45;&gt;I -->
<g id="edge33" class="edge"><title>III&#45;&gt;I</title>
<path fill="none" stroke="black" stroke-width="0.5" d="M503.418,-338.941C486.362,-270.051 417.64,-38 265.796,-38 114,-38 114,-38 114,-38 37.8863,-38 22.6324,-316.871 19.6823,-407.746"/>
<polygon fill="black" stroke="black" stroke-width="0.5" points="16.1803,-407.765 19.3803,-417.865 23.1772,-407.973 16.1803,-407.765"/>
<text text-anchor="middle" x="264.796" y="-41.8" font-family="Times New Roman,serif" font-size="14.00">0.05</text>
</g>
<!-- III&#45;&gt;i -->
<g id="edge34" class="edge"><title>III&#45;&gt;i</title>
<path fill="none" stroke="black" stroke-width="6.3" d="M489.2,-360.018C443.306,-365.31 326.137,-380.794 295.296,-404 281.947,-414.045 291.662,-428.472 277.296,-437 267.742,-442.672 263.407,-437.041 252.296,-437 214.485,-436.861 170.775,-436.506 143.261,-436.259"/>
<polygon fill="black" stroke="black" stroke-width="6.3" points="143.262,-430.746 133.212,-436.167 143.161,-441.771 143.262,-430.746"/>
<text text-anchor="middle" x="313.296" y="-407.8" font-family="Times New Roman,serif" font-size="14.00">0.63</text>
</g>
<!-- III&#45;&gt;IV -->
<g id="edge35" class="edge"><title>III&#45;&gt;IV</title>
<path fill="none" stroke="black" stroke-width="0.5" d="M517.048,-376.089C534.109,-418.635 576.874,-525.28 597.275,-576.154"/>
<polygon fill="black" stroke="black" stroke-width="0.5" points="594.072,-577.571 601.043,-585.55 600.569,-574.966 594.072,-577.571"/>
<text text-anchor="middle" x="558.793" y="-513.8" font-family="Times New Roman,serif" font-size="14.00">0.05</text>
</g>
<!-- III&#45;&gt;v -->
<g id="edge36" class="edge"><title>III&#45;&gt;v</title>
<path fill="none" stroke="black" stroke-width="0.5" d="M491.032,-349.315C475.772,-341.408 453.053,-329.636 435.764,-320.678"/>
<polygon fill="black" stroke="black" stroke-width="0.5" points="437.29,-317.526 426.801,-316.033 434.069,-323.742 437.29,-317.526"/>
<text text-anchor="middle" x="458.796" y="-341.8" font-family="Times New Roman,serif" font-size="14.00">0.05</text>
</g>
<!-- III&#45;&gt;vi -->
<g id="edge37" class="edge"><title>III&#45;&gt;vi</title>
<path fill="none" stroke="black" stroke-width="1.1" d="M499.87,-375.47C493.456,-388.283 483.497,-405.545 471.296,-418 468.571,-420.783 380.856,-476.122 337.747,-503.255"/>
<polygon fill="black" stroke="black" stroke-width="1.1" points="335.629,-500.452 329.029,-508.74 339.357,-506.377 335.629,-500.452"/>
<text text-anchor="middle" x="410.296" y="-470.8" font-family="Times New Roman,serif" font-size="14.00">0.11</text>
</g>
<!-- III&#45;&gt;VI -->
<g id="edge38" class="edge"><title>III&#45;&gt;VI</title>
<path fill="none" stroke="black" stroke-width="1.1" d="M500.919,-339.995C494.935,-326.494 485.053,-308.445 471.296,-297 455.621,-283.959 448.045,-286.077 428.296,-281 364.301,-264.547 285.944,-267.632 244.351,-271.01"/>
<polygon fill="black" stroke="black" stroke-width="1.1" points="244.014,-267.526 234.358,-271.886 244.625,-274.499 244.014,-267.526"/>
<text text-anchor="middle" x="361.796" y="-274.8" font-family="Times New Roman,serif" font-size="14.00">0.11</text>
</g>
<!-- vi&#45;&gt;I -->
<g id="edge39" class="edge"><title>vi&#45;&gt;I</title>
<path fill="none" stroke="black" stroke-width="6.1" d="M305.959,-534.581C299.972,-548.896 290.018,-569.635 277.296,-585 238.898,-631.375 208.4,-652.172 151,-634 94.0608,-615.974 82.2476,-593.622 54,-541 40.6447,-516.121 31.0891,-485.205 25.3718,-463.382"/>
<polygon fill="black" stroke="black" stroke-width="6.1" points="30.4923,-461.858 22.8735,-453.465 20.1407,-464.466 30.4923,-461.858"/>
<text text-anchor="middle" x="163.5" y="-642.8" font-family="Times New Roman,serif" font-size="14.00">0.61</text>
</g>
<!-- vi&#45;&gt;i -->
<g id="edge40" class="edge"><title>vi&#45;&gt;i</title>
<path fill="none" stroke="black" d="M295.649,-521.821C272.211,-526.422 228.493,-532.125 194,-520 165.052,-509.824 142.68,-481.436 129.463,-460.464"/>
<polygon fill="black" stroke="black" points="132.36,-458.488 124.205,-451.724 126.361,-462.097 132.36,-458.488"/>
<text text-anchor="middle" x="214.148" y="-530.8" font-family="Times New Roman,serif" font-size="14.00">0.1</text>
</g>
<!-- vi&#45;&gt;V -->
<g id="edge41" class="edge"><title>vi&#45;&gt;V</title>
<path fill="none" stroke="black" stroke-width="1.3" d="M331.141,-515.557C362.284,-511.179 431.011,-502.155 489.296,-499 558.079,-495.277 639.23,-497.345 680.515,-498.857"/>
<polygon fill="black" stroke="black" stroke-width="1.3" points="680.463,-502.358 690.59,-499.245 680.732,-495.363 680.463,-502.358"/>
<text text-anchor="middle" x="508.795" y="-502.8" font-family="Times New Roman,serif" font-size="14.00">0.13</text>
</g>
<!-- vi&#45;&gt;IV -->
<g id="edge42" class="edge"><title>vi&#45;&gt;IV</title>
<path fill="none" stroke="black" stroke-width="0.3" d="M320.149,-534.881C325.621,-548.116 335.101,-565.928 349.296,-576 419.241,-625.627 527.651,-617.121 579.24,-609.356"/>
<polygon fill="black" stroke="black" stroke-width="0.3" points="580.033,-612.774 589.352,-607.732 578.923,-605.862 580.033,-612.774"/>
<text text-anchor="middle" x="458.796" y="-617.8" font-family="Times New Roman,serif" font-size="14.00">0.03</text>
</g>
<!-- vi&#45;&gt;v -->
<g id="edge43" class="edge"><title>vi&#45;&gt;v</title>
<path fill="none" stroke="black" d="M322.849,-502.624C329.414,-491.412 339.064,-476.123 349.296,-464 359.035,-452.463 366.506,-453.933 374.296,-441 394.07,-408.175 402.807,-364.233 406.574,-336.015"/>
<polygon fill="black" stroke="black" points="410.055,-336.375 407.786,-326.026 403.106,-335.531 410.055,-336.375"/>
<text text-anchor="middle" x="361.796" y="-467.8" font-family="Times New Roman,serif" font-size="14.00">0.1</text>
</g>
<!-- vi&#45;&gt;VI -->
<g id="edge44" class="edge"><title>vi&#45;&gt;VI</title>
<path fill="none" stroke="black" stroke-width="0.3" d="M303.939,-502.588C300.842,-496.345 297.541,-488.974 295.296,-482 281.728,-439.846 298.696,-422.77 277.296,-384 270.001,-370.782 261.011,-373.329 252.296,-361 239.776,-343.286 230.287,-320.693 224.033,-302.97"/>
<polygon fill="black" stroke="black" stroke-width="0.3" points="227.241,-301.527 220.727,-293.171 220.608,-303.765 227.241,-301.527"/>
<text text-anchor="middle" x="264.796" y="-387.8" font-family="Times New Roman,serif" font-size="14.00">0.03</text>
</g>
<!-- VI&#45;&gt;I -->
<g id="edge45" class="edge"><title>VI&#45;&gt;I</title>
<path fill="none" stroke="black" stroke-width="1.7" d="M195.418,-266.174C182.496,-261.689 164.894,-258.173 151,-265 89.0947,-295.417 48.009,-370.386 29.7792,-410.195"/>
<polygon fill="black" stroke="black" stroke-width="1.7" points="26.5023,-408.95 25.6382,-419.51 32.8987,-411.794 26.5023,-408.95"/>
<text text-anchor="middle" x="115" y="-309.8" font-family="Times New Roman,serif" font-size="14.00">0.17</text>
</g>
<!-- VI&#45;&gt;i -->
<g id="edge46" class="edge"><title>VI&#45;&gt;i</title>
<path fill="none" stroke="black" stroke-width="6.7" d="M194.374,-269.769C180.756,-267.87 162.74,-267.939 151,-278 131.612,-294.615 122.112,-367.283 118.232,-408.034"/>
<polygon fill="black" stroke="black" stroke-width="6.7" points="112.381,-407.646 117.323,-418.131 124.058,-408.697 112.381,-407.646"/>
<text text-anchor="middle" x="163.5" y="-281.8" font-family="Times New Roman,serif" font-size="14.00">0.67</text>
</g>
<!-- VI&#45;&gt;vi -->
<g id="edge47" class="edge"><title>VI&#45;&gt;vi</title>
<path fill="none" stroke="black" stroke-width="1.7" d="M219.773,-293.419C225.96,-318.31 237.844,-362.598 252.296,-399 265.728,-432.832 285.311,-470.024 298.412,-493.668"/>
<polygon fill="black" stroke="black" stroke-width="1.7" points="295.487,-495.609 303.425,-502.626 301.596,-492.19 295.487,-495.609"/>
<text text-anchor="middle" x="264.796" y="-455.8" font-family="Times New Roman,serif" font-size="14.00">0.17</text>
</g>
</g>
</svg>
